<mxfile host="65bd71144e">
    <diagram id="uhR_YKpUravV75lcOqos" name="Page-1">
        <mxGraphModel dx="5395" dy="2340" grid="0" gridSize="10" guides="1" tooltips="1" connect="1" arrows="1" fold="1" page="0" pageScale="1" pageWidth="827" pageHeight="1169" math="0" shadow="0">
            <root>
                <mxCell id="0"/>
                <mxCell id="1" parent="0"/>
                <mxCell id="89" value="" style="whiteSpace=wrap;html=1;" parent="1" vertex="1">
                    <mxGeometry x="4553" y="2326" width="834" height="242" as="geometry"/>
                </mxCell>
                <mxCell id="77" value="" style="whiteSpace=wrap;html=1;" parent="1" vertex="1">
                    <mxGeometry x="2394.5" y="2806" width="1066" height="118" as="geometry"/>
                </mxCell>
                <mxCell id="76" value="" style="whiteSpace=wrap;html=1;" parent="1" vertex="1">
                    <mxGeometry x="2390" y="2326" width="1066" height="242" as="geometry"/>
                </mxCell>
                <mxCell id="49" value="" style="whiteSpace=wrap;html=1;fontSize=18;fillColor=#FFC182;" parent="1" vertex="1">
                    <mxGeometry x="1460" y="1176" width="816" height="936" as="geometry"/>
                </mxCell>
                <mxCell id="52" value="" style="whiteSpace=wrap;html=1;fillColor=#7DE9FF;" parent="1" vertex="1">
                    <mxGeometry x="1871" y="1422" width="402" height="342" as="geometry"/>
                </mxCell>
                <mxCell id="30" value="- matmul&lt;br&gt;- operator broadcasting&lt;br&gt;- masked_fill&lt;br&gt;- cat&lt;br&gt;- stack&lt;br&gt;- squeeze&lt;br&gt;- unsqueeze" style="text;html=1;align=left;verticalAlign=middle;resizable=0;points=[];autosize=1;strokeColor=none;fillColor=none;fontSize=36;" parent="1" vertex="1">
                    <mxGeometry x="1896" y="1433" width="390" height="314" as="geometry"/>
                </mxCell>
                <mxCell id="51" value="" style="whiteSpace=wrap;html=1;fontSize=18;fillColor=#FFFF00;" parent="1" vertex="1">
                    <mxGeometry x="3424" y="1150.5" width="918" height="936" as="geometry"/>
                </mxCell>
                <mxCell id="50" value="" style="whiteSpace=wrap;html=1;fontSize=18;fillColor=#26FF43;" parent="1" vertex="1">
                    <mxGeometry x="2480" y="1154" width="816" height="936" as="geometry"/>
                </mxCell>
                <mxCell id="4" value="" style="edgeStyle=none;html=1;fontSize=36;" parent="1" source="2" target="3" edge="1">
                    <mxGeometry relative="1" as="geometry"/>
                </mxCell>
                <mxCell id="6" style="edgeStyle=none;html=1;fontSize=36;" parent="1" source="2" target="5" edge="1">
                    <mxGeometry relative="1" as="geometry"/>
                </mxCell>
                <mxCell id="2" value="&lt;h1&gt;&lt;font style=&quot;font-size: 36px;&quot;&gt;Enabling AI in Raspberry PI&lt;br&gt;&lt;/font&gt;&lt;font style=&quot;font-size: 36px;&quot;&gt;Installing and practicing Pytorch&lt;/font&gt;&lt;/h1&gt;" style="text;html=1;align=center;verticalAlign=middle;resizable=0;points=[];autosize=1;strokeColor=none;fillColor=none;" parent="1" vertex="1">
                    <mxGeometry x="3" y="105" width="576" height="131" as="geometry"/>
                </mxCell>
                <mxCell id="3" value="&lt;h1&gt;Why?&lt;/h1&gt;&lt;div style=&quot;text-align: left;&quot;&gt;&lt;span style=&quot;background-color: initial;&quot;&gt;- To see if we can Install Torch&lt;/span&gt;&lt;/div&gt;&lt;div style=&quot;text-align: left;&quot;&gt;&lt;span style=&quot;background-color: initial;&quot;&gt;- Build &amp;amp; Load Neural Net Models&lt;/span&gt;&lt;/div&gt;&lt;div style=&quot;text-align: left;&quot;&gt;&lt;span style=&quot;background-color: initial;&quot;&gt;- Think what we can do next&lt;/span&gt;&lt;/div&gt;" style="text;html=1;align=center;verticalAlign=middle;resizable=0;points=[];autosize=1;strokeColor=none;fillColor=none;fontSize=36;" parent="1" vertex="1">
                    <mxGeometry x="-542" y="385" width="552" height="324" as="geometry"/>
                </mxCell>
                <mxCell id="5" value="&lt;h1&gt;How?&lt;/h1&gt;&lt;div style=&quot;text-align: left;&quot;&gt;&lt;span style=&quot;background-color: initial;&quot;&gt;- Get a RaspBerry Pi 3+ (4GB ram)&lt;/span&gt;&lt;/div&gt;&lt;div style=&quot;text-align: left;&quot;&gt;&lt;span style=&quot;background-color: initial;&quot;&gt;- Get hold of 64Bit PiOS&lt;/span&gt;&lt;/div&gt;&lt;div style=&quot;text-align: left;&quot;&gt;&lt;span style=&quot;background-color: initial;&quot;&gt;- Install the OS on 16GB memory chip using&amp;nbsp;&lt;/span&gt;&lt;/div&gt;&lt;div style=&quot;text-align: left;&quot;&gt;&lt;span style=&quot;background-color: initial;&quot;&gt;RPi Imager&lt;/span&gt;&lt;/div&gt;&lt;div style=&quot;text-align: left;&quot;&gt;&lt;span style=&quot;background-color: initial;&quot;&gt;- SSH to the RPi&lt;/span&gt;&lt;/div&gt;&lt;div style=&quot;text-align: left;&quot;&gt;&lt;span style=&quot;background-color: initial;&quot;&gt;- Execute below commands&amp;nbsp;&lt;/span&gt;&lt;/div&gt;" style="text;html=1;align=center;verticalAlign=middle;resizable=0;points=[];autosize=1;strokeColor=none;fillColor=none;fontSize=36;" parent="1" vertex="1">
                    <mxGeometry x="418" y="385" width="730" height="454" as="geometry"/>
                </mxCell>
                <mxCell id="7" value="&lt;div style=&quot;text-align: left;&quot;&gt;-&amp;nbsp;&lt;span style=&quot;background-color: initial;&quot;&gt;python --version&lt;/span&gt;&lt;/div&gt;&lt;div style=&quot;text-align: left;&quot;&gt;- sudo apt update -y &amp;amp;&amp;amp; sudo apt upgrade&lt;/div&gt;&lt;div style=&quot;text-align: left;&quot;&gt;&lt;span style=&quot;background-color: initial;&quot;&gt;- sudo reboot&lt;/span&gt;&lt;br&gt;&lt;/div&gt;&lt;div style=&quot;text-align: left;&quot;&gt;&lt;span style=&quot;background-color: initial;&quot;&gt;- curl https://sh.rustup.rs -sSf | sh&lt;/span&gt;&lt;/div&gt;&lt;div style=&quot;text-align: left;&quot;&gt;&lt;span style=&quot;background-color: initial;&quot;&gt;- sudo apt install python3-pip&lt;/span&gt;&lt;br&gt;&lt;/div&gt;&lt;div style=&quot;text-align: left;&quot;&gt;&lt;span style=&quot;background-color: initial;&quot;&gt;- python -m pip install --upgrade pip&lt;/span&gt;&lt;br&gt;&lt;/div&gt;&lt;div style=&quot;text-align: left;&quot;&gt;&lt;span style=&quot;background-color: initial;&quot;&gt;- sudo apt install neovim&lt;/span&gt;&lt;br&gt;&lt;/div&gt;&lt;div style=&quot;text-align: left;&quot;&gt;&lt;span style=&quot;background-color: initial;&quot;&gt;- pip install torch&lt;/span&gt;&lt;br&gt;&lt;/div&gt;&lt;div style=&quot;text-align: left;&quot;&gt;&lt;span style=&quot;background-color: initial;&quot;&gt;- pip install sentence-transformers transformers[torch] huggingface_hub datasets evaluate&lt;/span&gt;&lt;br&gt;&lt;/div&gt;&lt;div style=&quot;text-align: left;&quot;&gt;&lt;span style=&quot;background-color: initial;&quot;&gt;(time required : 30 mins with 2 Mbps Internet)&lt;/span&gt;&lt;/div&gt;" style="text;html=1;align=center;verticalAlign=middle;resizable=0;points=[];autosize=1;strokeColor=none;fillColor=none;fontSize=36;" parent="1" vertex="1">
                    <mxGeometry x="-487" y="908" width="1451" height="444" as="geometry"/>
                </mxCell>
                <mxCell id="10" value="" style="edgeStyle=none;html=1;fontSize=36;" parent="1" source="8" target="11" edge="1">
                    <mxGeometry relative="1" as="geometry">
                        <mxPoint x="2148.0580357142862" y="291" as="targetPoint"/>
                    </mxGeometry>
                </mxCell>
                <mxCell id="16" style="edgeStyle=none;html=1;fontSize=36;" parent="1" source="8" target="14" edge="1">
                    <mxGeometry relative="1" as="geometry"/>
                </mxCell>
                <mxCell id="8" value="&lt;h1&gt;&lt;span style=&quot;font-size: 36px;&quot;&gt;Exploring Pytorch on Raspberry Pi&lt;/span&gt;&lt;/h1&gt;&lt;div&gt;&lt;span style=&quot;font-size: 36px;&quot;&gt;&lt;b&gt;Handson Tensor Data Manipulation for AI Enthusiasts&amp;nbsp;&lt;/b&gt;&lt;/span&gt;&lt;/div&gt;" style="text;html=1;align=center;verticalAlign=middle;resizable=0;points=[];autosize=1;strokeColor=none;fillColor=none;" parent="1" vertex="1">
                    <mxGeometry x="2025" y="-13" width="946" height="131" as="geometry"/>
                </mxCell>
                <mxCell id="11" value="&lt;b&gt;Understand vcgencmd &amp;amp; htop&lt;br&gt;&lt;/b&gt;- vcgencmd get_mem cpu, gpu&lt;br&gt;- vcgencmd measure_temp&lt;br&gt;- watch -n 5vcgencmd measure_temp&lt;br&gt;- htop&lt;br&gt;&lt;font style=&quot;font-size: 18px;&quot;&gt;https://www.oreilly.com/library/view/raspberry-pi-hacks/9781449362737/ch01.html&lt;/font&gt;" style="text;html=1;align=left;verticalAlign=middle;resizable=0;points=[];autosize=1;strokeColor=none;fillColor=none;fontSize=36;" parent="1" vertex="1">
                    <mxGeometry x="1606" y="334" width="667" height="271" as="geometry"/>
                </mxCell>
                <mxCell id="18" value="" style="edgeStyle=none;html=1;fontSize=36;" parent="1" source="14" target="17" edge="1">
                    <mxGeometry relative="1" as="geometry"/>
                </mxCell>
                <mxCell id="14" value="&lt;b&gt;Why?&lt;/b&gt;&lt;br&gt;- Internalize the structure of the Pytorch library&lt;br&gt;- Learn purpose of common methods&amp;nbsp;&lt;br&gt;- Look at the data output shape&amp;nbsp;" style="text;html=1;align=left;verticalAlign=middle;resizable=0;points=[];autosize=1;strokeColor=none;fillColor=none;fontSize=36;" parent="1" vertex="1">
                    <mxGeometry x="2654" y="353" width="756" height="185" as="geometry"/>
                </mxCell>
                <mxCell id="24" style="edgeStyle=none;html=1;fontSize=18;" parent="1" source="17" target="21" edge="1">
                    <mxGeometry relative="1" as="geometry"/>
                </mxCell>
                <mxCell id="25" style="edgeStyle=none;html=1;fontSize=18;" parent="1" source="17" target="22" edge="1">
                    <mxGeometry relative="1" as="geometry"/>
                </mxCell>
                <mxCell id="26" style="edgeStyle=none;html=1;fontSize=18;" parent="1" source="17" target="23" edge="1">
                    <mxGeometry relative="1" as="geometry"/>
                </mxCell>
                <mxCell id="17" value="&lt;b&gt;What Methods &amp;amp; Classes?&lt;/b&gt;" style="text;html=1;align=left;verticalAlign=middle;resizable=0;points=[];autosize=1;strokeColor=none;fillColor=none;fontSize=36;" parent="1" vertex="1">
                    <mxGeometry x="2798" y="885" width="468" height="55" as="geometry"/>
                </mxCell>
                <mxCell id="41" style="edgeStyle=none;html=1;entryX=0.375;entryY=0.002;entryDx=0;entryDy=0;entryPerimeter=0;fontSize=18;" parent="1" source="21" target="29" edge="1">
                    <mxGeometry relative="1" as="geometry"/>
                </mxCell>
                <mxCell id="42" style="edgeStyle=none;html=1;fontSize=18;" parent="1" source="21" target="30" edge="1">
                    <mxGeometry relative="1" as="geometry"/>
                </mxCell>
                <mxCell id="21" value="Data manipulation&lt;br&gt;under torch module" style="text;html=1;align=left;verticalAlign=middle;resizable=0;points=[];autosize=1;strokeColor=none;fillColor=none;fontSize=36;" parent="1" vertex="1">
                    <mxGeometry x="1652" y="1217" width="328" height="98" as="geometry"/>
                </mxCell>
                <mxCell id="43" style="edgeStyle=none;html=1;fontSize=18;" parent="1" source="22" target="39" edge="1">
                    <mxGeometry relative="1" as="geometry"/>
                </mxCell>
                <mxCell id="44" style="edgeStyle=none;html=1;fontSize=18;" parent="1" source="22" target="40" edge="1">
                    <mxGeometry relative="1" as="geometry"/>
                </mxCell>
                <mxCell id="22" value="Optimizers&lt;br&gt;Loss Criterions" style="text;html=1;align=left;verticalAlign=middle;resizable=0;points=[];autosize=1;strokeColor=none;fillColor=none;fontSize=36;" parent="1" vertex="1">
                    <mxGeometry x="3780" y="1207" width="258" height="98" as="geometry"/>
                </mxCell>
                <mxCell id="34" style="edgeStyle=none;html=1;fontSize=18;" parent="1" source="23" target="32" edge="1">
                    <mxGeometry relative="1" as="geometry"/>
                </mxCell>
                <mxCell id="35" style="edgeStyle=none;html=1;fontSize=18;" parent="1" source="23" target="33" edge="1">
                    <mxGeometry relative="1" as="geometry"/>
                </mxCell>
                <mxCell id="23" value="Model layers&lt;br&gt;under nn module" style="text;html=1;align=left;verticalAlign=middle;resizable=0;points=[];autosize=1;strokeColor=none;fillColor=none;fontSize=36;" parent="1" vertex="1">
                    <mxGeometry x="2697" y="1211" width="288" height="98" as="geometry"/>
                </mxCell>
                <mxCell id="29" value="- ones&lt;br&gt;- zeros&lt;br&gt;- eye&lt;br&gt;- rand&lt;br&gt;- randn&lt;br&gt;- linspace&lt;br&gt;- randint&lt;br&gt;- view&lt;br&gt;- size&lt;br&gt;- triu&lt;br&gt;- tril&lt;br&gt;- arange&lt;br&gt;- from_numpy&lt;br&gt;- from_file&lt;br&gt;- Multinomial" style="text;html=1;align=left;verticalAlign=middle;resizable=0;points=[];autosize=1;strokeColor=none;fillColor=none;fontSize=36;" parent="1" vertex="1">
                    <mxGeometry x="1490" y="1422" width="240" height="660" as="geometry"/>
                </mxCell>
                <mxCell id="31" value="- ReLU&lt;br&gt;- TanH&lt;br&gt;- Leaky ReLU&lt;br&gt;...." style="text;html=1;align=left;verticalAlign=middle;resizable=0;points=[];autosize=1;strokeColor=none;fillColor=none;fontSize=36;" parent="1" vertex="1">
                    <mxGeometry x="2529" y="1541" width="238" height="185" as="geometry"/>
                </mxCell>
                <mxCell id="37" style="edgeStyle=none;html=1;fontSize=18;" parent="1" source="32" target="31" edge="1">
                    <mxGeometry relative="1" as="geometry"/>
                </mxCell>
                <mxCell id="32" value="Activation Layers" style="text;html=1;align=left;verticalAlign=middle;resizable=0;points=[];autosize=1;strokeColor=none;fillColor=none;fontSize=36;" parent="1" vertex="1">
                    <mxGeometry x="2509" y="1414" width="292" height="55" as="geometry"/>
                </mxCell>
                <mxCell id="38" style="edgeStyle=none;html=1;fontSize=18;" parent="1" source="33" target="36" edge="1">
                    <mxGeometry relative="1" as="geometry"/>
                </mxCell>
                <mxCell id="33" value="Connected Layers" style="text;html=1;align=left;verticalAlign=middle;resizable=0;points=[];autosize=1;strokeColor=none;fillColor=none;fontSize=36;" parent="1" vertex="1">
                    <mxGeometry x="2981" y="1414" width="310" height="55" as="geometry"/>
                </mxCell>
                <mxCell id="36" value="- Embedding&lt;br&gt;- Flatten&lt;br&gt;- Linear&lt;br&gt;- Dropout&lt;br&gt;- Conv&lt;br&gt;- Softmax&lt;br&gt;- Sequential&lt;br&gt;..." style="text;html=1;align=left;verticalAlign=middle;resizable=0;points=[];autosize=1;strokeColor=none;fillColor=none;fontSize=36;" parent="1" vertex="1">
                    <mxGeometry x="3025" y="1538" width="222" height="358" as="geometry"/>
                </mxCell>
                <mxCell id="46" style="edgeStyle=none;html=1;fontSize=18;" parent="1" source="39" target="45" edge="1">
                    <mxGeometry relative="1" as="geometry"/>
                </mxCell>
                <mxCell id="39" value="Optimizers" style="text;html=1;align=left;verticalAlign=middle;resizable=0;points=[];autosize=1;strokeColor=none;fillColor=none;fontSize=36;" parent="1" vertex="1">
                    <mxGeometry x="3430" y="1414.5" width="190" height="55" as="geometry"/>
                </mxCell>
                <mxCell id="48" style="edgeStyle=none;html=1;fontSize=18;" parent="1" source="40" target="47" edge="1">
                    <mxGeometry relative="1" as="geometry"/>
                </mxCell>
                <mxCell id="40" value="Loss Calculators" style="text;html=1;align=left;verticalAlign=middle;resizable=0;points=[];autosize=1;strokeColor=none;fillColor=none;fontSize=36;" parent="1" vertex="1">
                    <mxGeometry x="4056" y="1414.5" width="284" height="55" as="geometry"/>
                </mxCell>
                <mxCell id="45" value="- Adam&lt;br&gt;- AdamW&lt;br&gt;- SGD&lt;br&gt;..." style="text;html=1;align=left;verticalAlign=middle;resizable=0;points=[];autosize=1;strokeColor=none;fillColor=none;fontSize=36;" parent="1" vertex="1">
                    <mxGeometry x="3440" y="1526" width="166" height="185" as="geometry"/>
                </mxCell>
                <mxCell id="47" value="- MSE&lt;br&gt;- CrossEntropy&lt;br&gt;..." style="text;html=1;align=left;verticalAlign=middle;resizable=0;points=[];autosize=1;strokeColor=none;fillColor=none;fontSize=36;" parent="1" vertex="1">
                    <mxGeometry x="4069" y="1529" width="258" height="142" as="geometry"/>
                </mxCell>
                <mxCell id="53" value="&lt;font style=&quot;font-size: 24px;&quot;&gt;One Challenge: What is the best &lt;br&gt;way to Visualise&lt;br&gt;matrices&lt;br&gt;&lt;/font&gt;" style="text;html=1;align=center;verticalAlign=middle;resizable=0;points=[];autosize=1;strokeColor=none;fillColor=none;" parent="1" vertex="1">
                    <mxGeometry x="1882" y="1798" width="364" height="98" as="geometry"/>
                </mxCell>
                <mxCell id="54" value="&lt;font style=&quot;font-size: 36px;&quot;&gt;Embedding Layer:&amp;nbsp;&amp;nbsp;Converts the given vocab size into embedding array, that represent the numbers&lt;br&gt;Used for &quot;creating&quot; word embeddings with a given vocabsize&lt;/font&gt;" style="text;html=1;align=left;verticalAlign=middle;resizable=0;points=[];autosize=1;strokeColor=none;fillColor=none;" parent="1" vertex="1">
                    <mxGeometry x="718" y="2383" width="1608" height="98" as="geometry"/>
                </mxCell>
                <mxCell id="67" style="edgeStyle=none;html=1;" parent="1" source="55" target="56" edge="1">
                    <mxGeometry relative="1" as="geometry"/>
                </mxCell>
                <mxCell id="55" value="&lt;span style=&quot;font-size: 36px;&quot;&gt;Embedding Creation Process&lt;/span&gt;" style="text;html=1;align=left;verticalAlign=middle;resizable=0;points=[];autosize=1;strokeColor=none;fillColor=none;" parent="1" vertex="1">
                    <mxGeometry x="1092" y="2565" width="486" height="55" as="geometry"/>
                </mxCell>
                <mxCell id="68" style="edgeStyle=none;html=1;" parent="1" source="56" target="57" edge="1">
                    <mxGeometry relative="1" as="geometry"/>
                </mxCell>
                <mxCell id="56" value="&lt;span style=&quot;font-size: 36px;&quot;&gt;Example Text Corpus&lt;/span&gt;" style="text;html=1;align=left;verticalAlign=middle;resizable=0;points=[];autosize=1;strokeColor=none;fillColor=none;" parent="1" vertex="1">
                    <mxGeometry x="1155.5" y="2721" width="359" height="55" as="geometry"/>
                </mxCell>
                <mxCell id="70" style="edgeStyle=none;html=1;" parent="1" source="57" target="58" edge="1">
                    <mxGeometry relative="1" as="geometry"/>
                </mxCell>
                <mxCell id="57" value="&lt;span style=&quot;font-size: 36px;&quot;&gt;Tokenizing Text&lt;/span&gt;" style="text;html=1;align=left;verticalAlign=middle;resizable=0;points=[];autosize=1;strokeColor=none;fillColor=none;" parent="1" vertex="1">
                    <mxGeometry x="1203.5" y="2877" width="263" height="55" as="geometry"/>
                </mxCell>
                <mxCell id="66" style="edgeStyle=none;html=1;entryX=0.009;entryY=0.515;entryDx=0;entryDy=0;entryPerimeter=0;" parent="1" source="58" target="59" edge="1">
                    <mxGeometry relative="1" as="geometry"/>
                </mxCell>
                <mxCell id="58" value="&lt;span style=&quot;font-size: 36px;&quot;&gt;StopWord Removal&lt;/span&gt;" style="text;html=1;align=left;verticalAlign=middle;resizable=0;points=[];autosize=1;strokeColor=none;fillColor=none;" parent="1" vertex="1">
                    <mxGeometry x="1170.5" y="3033" width="329" height="55" as="geometry"/>
                </mxCell>
                <mxCell id="62" style="edgeStyle=none;html=1;" parent="1" source="59" target="61" edge="1">
                    <mxGeometry relative="1" as="geometry"/>
                </mxCell>
                <mxCell id="59" value="&lt;span style=&quot;font-size: 36px;&quot;&gt;Special Chars &lt;br&gt;Removal&lt;/span&gt;" style="text;html=1;align=left;verticalAlign=middle;resizable=0;points=[];autosize=1;strokeColor=none;fillColor=none;" parent="1" vertex="1">
                    <mxGeometry x="1842" y="2555" width="242" height="98" as="geometry"/>
                </mxCell>
                <mxCell id="65" style="edgeStyle=none;html=1;" parent="1" source="60" target="64" edge="1">
                    <mxGeometry relative="1" as="geometry"/>
                </mxCell>
                <mxCell id="60" value="&lt;span style=&quot;font-size: 36px;&quot;&gt;Creating word_to_id map&lt;/span&gt;" style="text;html=1;align=left;verticalAlign=middle;resizable=0;points=[];autosize=1;strokeColor=none;fillColor=none;" parent="1" vertex="1">
                    <mxGeometry x="1745" y="2877" width="420" height="55" as="geometry"/>
                </mxCell>
                <mxCell id="63" style="edgeStyle=none;html=1;" parent="1" source="61" target="60" edge="1">
                    <mxGeometry relative="1" as="geometry"/>
                </mxCell>
                <mxCell id="61" value="&lt;span style=&quot;font-size: 36px;&quot;&gt;Creating id_to_word map&lt;/span&gt;" style="text;html=1;align=left;verticalAlign=middle;resizable=0;points=[];autosize=1;strokeColor=none;fillColor=none;" parent="1" vertex="1">
                    <mxGeometry x="1753" y="2721" width="420" height="55" as="geometry"/>
                </mxCell>
                <mxCell id="64" value="&lt;span style=&quot;font-size: 36px;&quot;&gt;Embedding the ID&lt;/span&gt;" style="text;html=1;align=left;verticalAlign=middle;resizable=0;points=[];autosize=1;strokeColor=none;fillColor=none;" parent="1" vertex="1">
                    <mxGeometry x="1798" y="3040" width="306" height="55" as="geometry"/>
                </mxCell>
                <mxCell id="75" style="edgeStyle=none;html=1;" parent="1" source="71" target="73" edge="1">
                    <mxGeometry relative="1" as="geometry"/>
                </mxCell>
                <mxCell id="79" style="edgeStyle=none;html=1;entryX=0.429;entryY=-0.02;entryDx=0;entryDy=0;entryPerimeter=0;" parent="1" source="71" target="78" edge="1">
                    <mxGeometry relative="1" as="geometry"/>
                </mxCell>
                <mxCell id="71" value="&lt;span style=&quot;font-size: 36px;&quot;&gt;Layers in Neural Networks are doing Matrix Operations on data&amp;nbsp;&lt;br&gt;to solve the multi-variable equations&lt;br&gt;&lt;/span&gt;" style="text;html=1;align=left;verticalAlign=middle;resizable=0;points=[];autosize=1;strokeColor=none;fillColor=none;" parent="1" vertex="1">
                    <mxGeometry x="2410" y="2819" width="1035" height="98" as="geometry"/>
                </mxCell>
                <mxCell id="74" style="edgeStyle=none;html=1;" parent="1" source="72" target="71" edge="1">
                    <mxGeometry relative="1" as="geometry"/>
                </mxCell>
                <mxCell id="72" value="&lt;span style=&quot;font-size: 36px;&quot;&gt;Idea behind creating features with n-Dim&amp;nbsp;is, the real world data &lt;br&gt;has many dimensions, which are called as features or factors.&lt;br&gt;&lt;br&gt;&lt;/span&gt;&lt;span style=&quot;font-size: 36px;&quot;&gt;Real world data has been converted to matrices using the&lt;/span&gt;&lt;br style=&quot;border-color: var(--border-color); font-size: 36px;&quot;&gt;&lt;span style=&quot;font-size: 36px;&quot;&gt;embedding layer.&lt;/span&gt;&lt;span style=&quot;font-size: 36px;&quot;&gt;&lt;br&gt;&lt;/span&gt;" style="text;html=1;align=left;verticalAlign=middle;resizable=0;points=[];autosize=1;strokeColor=none;fillColor=none;" parent="1" vertex="1">
                    <mxGeometry x="2419" y="2333" width="1017" height="228" as="geometry"/>
                </mxCell>
                <mxCell id="82" value="" style="edgeStyle=none;html=1;" parent="1" source="73" target="81" edge="1">
                    <mxGeometry relative="1" as="geometry"/>
                </mxCell>
                <mxCell id="73" value="&lt;div style=&quot;text-align: center;&quot;&gt;&lt;span style=&quot;font-size: 36px; background-color: initial;&quot;&gt;Layers Containing&lt;/span&gt;&lt;/div&gt;&lt;span style=&quot;font-size: 36px;&quot;&gt;&lt;div style=&quot;text-align: center;&quot;&gt;&lt;span style=&quot;background-color: initial;&quot;&gt;Parameters&lt;/span&gt;&lt;/div&gt;&lt;/span&gt;" style="text;html=1;align=left;verticalAlign=middle;resizable=0;points=[];autosize=1;strokeColor=none;fillColor=none;" parent="1" vertex="1">
                    <mxGeometry x="2379" y="3150" width="308" height="98" as="geometry"/>
                </mxCell>
                <mxCell id="84" style="edgeStyle=none;html=1;" parent="1" source="78" target="83" edge="1">
                    <mxGeometry relative="1" as="geometry"/>
                </mxCell>
                <mxCell id="78" value="&lt;div style=&quot;text-align: center;&quot;&gt;&lt;span style=&quot;font-size: 36px;&quot;&gt;Layers Doing&amp;nbsp;&lt;/span&gt;&lt;/div&gt;&lt;div style=&quot;text-align: center;&quot;&gt;&lt;span style=&quot;font-size: 36px;&quot;&gt;Operations&lt;/span&gt;&lt;/div&gt;" style="text;html=1;align=left;verticalAlign=middle;resizable=0;points=[];autosize=1;strokeColor=none;fillColor=none;" parent="1" vertex="1">
                    <mxGeometry x="3247" y="3140" width="240" height="98" as="geometry"/>
                </mxCell>
                <mxCell id="80" value="&lt;div style=&quot;text-align: center;&quot;&gt;&lt;span style=&quot;font-size: 36px;&quot;&gt;Objective is to learn how to&amp;nbsp;&lt;/span&gt;&lt;/div&gt;&lt;div style=&quot;text-align: center;&quot;&gt;&lt;span style=&quot;font-size: 36px;&quot;&gt;play with the data&amp;nbsp;&lt;/span&gt;&lt;/div&gt;&lt;div style=&quot;text-align: center;&quot;&gt;&lt;span style=&quot;font-size: 36px;&quot;&gt;sent to these&amp;nbsp;&lt;/span&gt;&lt;span style=&quot;font-size: 36px; background-color: initial;&quot;&gt;layers&amp;nbsp;&lt;/span&gt;&lt;/div&gt;" style="text;html=1;align=left;verticalAlign=middle;resizable=0;points=[];autosize=1;strokeColor=none;fillColor=none;" parent="1" vertex="1">
                    <mxGeometry x="2697.5" y="3592" width="460" height="142" as="geometry"/>
                </mxCell>
                <mxCell id="86" style="edgeStyle=none;html=1;fontSize=48;" parent="1" source="81" target="80" edge="1">
                    <mxGeometry relative="1" as="geometry"/>
                </mxCell>
                <mxCell id="81" value="&lt;div style=&quot;text-align: center;&quot;&gt;&lt;span style=&quot;font-size: 36px;&quot;&gt;Linear Layer&lt;/span&gt;&lt;/div&gt;" style="text;html=1;align=left;verticalAlign=middle;resizable=0;points=[];autosize=1;strokeColor=none;fillColor=none;" parent="1" vertex="1">
                    <mxGeometry x="2424" y="3356" width="218" height="55" as="geometry"/>
                </mxCell>
                <mxCell id="87" style="edgeStyle=none;html=1;fontSize=48;" parent="1" source="83" target="80" edge="1">
                    <mxGeometry relative="1" as="geometry"/>
                </mxCell>
                <mxCell id="83" value="&lt;div style=&quot;text-align: center;&quot;&gt;&lt;span style=&quot;font-size: 36px;&quot;&gt;Dropout Layer&lt;/span&gt;&lt;/div&gt;&lt;div style=&quot;text-align: center;&quot;&gt;&lt;span style=&quot;font-size: 36px;&quot;&gt;Flatten Layer&lt;/span&gt;&lt;/div&gt;&lt;div style=&quot;text-align: center;&quot;&gt;&lt;span style=&quot;font-size: 36px;&quot;&gt;Softmax Layer&lt;/span&gt;&lt;/div&gt;&lt;div style=&quot;text-align: center;&quot;&gt;&lt;br&gt;&lt;/div&gt;" style="text;html=1;align=left;verticalAlign=middle;resizable=0;points=[];autosize=1;strokeColor=none;fillColor=none;" parent="1" vertex="1">
                    <mxGeometry x="3254" y="3352" width="250" height="156" as="geometry"/>
                </mxCell>
                <mxCell id="85" value="&lt;div&gt;# Create 2 tensor with 1-d made of random values&lt;/div&gt;&lt;div&gt;# Create 2 Embedding layers for 0-10 &amp;amp; 0-100 ranges, with embedding dim of 3&lt;/div&gt;&lt;div&gt;# Embed the 2 tensors with their respective embedding layers&lt;/div&gt;&lt;div&gt;# Intro the Linear Layer, the arguments, spec &amp;amp; purpose&lt;/div&gt;&lt;div&gt;# Create the Linear Layers and show the parameters and output&lt;/div&gt;&lt;div&gt;# Modify embeded tensors into batches using view command&lt;/div&gt;&lt;div&gt;# Send the batches of tensors into Linear layer and look at the output&lt;/div&gt;&lt;div&gt;# Create new tensor with dim of 5, 10, 15, 10, 10. Flatten it to 5, 10, -1 shape, then further work on flattening it&lt;/div&gt;&lt;div&gt;# create a new linear layer to accomodate the updated features and show the parameters&lt;/div&gt;" style="whiteSpace=wrap;html=1;" parent="1" vertex="1">
                    <mxGeometry x="2687" y="4154" width="409.5" height="206" as="geometry"/>
                </mxCell>
                <mxCell id="91" style="edgeStyle=none;html=1;fontSize=48;" parent="1" source="88" target="90" edge="1">
                    <mxGeometry relative="1" as="geometry"/>
                </mxCell>
                <mxCell id="88" value="&lt;font style=&quot;font-size: 48px;&quot;&gt;PyTorch Backpropagation Explained&lt;br&gt;Unveiling What Happens &lt;br&gt;During Neural Network Training&amp;nbsp;&lt;/font&gt;" style="text;html=1;align=center;verticalAlign=middle;resizable=0;points=[];autosize=1;strokeColor=none;fillColor=none;" parent="1" vertex="1">
                    <mxGeometry x="4575.5" y="2352" width="789" height="185" as="geometry"/>
                </mxCell>
                <mxCell id="93" value="" style="edgeStyle=none;html=1;fontSize=48;" parent="1" source="96" target="92" edge="1">
                    <mxGeometry relative="1" as="geometry"/>
                </mxCell>
                <mxCell id="95" value="" style="edgeStyle=none;html=1;fontSize=48;" parent="1" source="96" target="94" edge="1">
                    <mxGeometry relative="1" as="geometry"/>
                </mxCell>
                <mxCell id="97" value="" style="edgeStyle=none;html=1;fontSize=48;" parent="1" source="90" target="96" edge="1">
                    <mxGeometry relative="1" as="geometry"/>
                </mxCell>
                <mxCell id="90" value="&lt;span style=&quot;font-size: 48px;&quot;&gt;How to See Back Propagation &lt;br&gt;Working In Pytorch&lt;/span&gt;" style="text;html=1;align=center;verticalAlign=middle;resizable=0;points=[];autosize=1;strokeColor=none;fillColor=none;" parent="1" vertex="1">
                    <mxGeometry x="4641" y="2804.5" width="658" height="127" as="geometry"/>
                </mxCell>
                <mxCell id="92" value="Create the Parts Required for BP" style="text;html=1;align=center;verticalAlign=middle;resizable=0;points=[];autosize=1;strokeColor=none;fillColor=none;fontSize=48;" parent="1" vertex="1">
                    <mxGeometry x="4060" y="3475" width="722" height="70" as="geometry"/>
                </mxCell>
                <mxCell id="94" value="Look at the Internal Working&amp;nbsp;&lt;br&gt;of the Parts" style="text;html=1;align=center;verticalAlign=middle;resizable=0;points=[];autosize=1;strokeColor=none;fillColor=none;fontSize=48;" parent="1" vertex="1">
                    <mxGeometry x="5311" y="3418" width="631" height="127" as="geometry"/>
                </mxCell>
                <mxCell id="96" value="Get a view on&amp;nbsp;&lt;br&gt;BP process" style="text;html=1;align=center;verticalAlign=middle;resizable=0;points=[];autosize=1;strokeColor=none;fillColor=none;fontSize=48;" parent="1" vertex="1">
                    <mxGeometry x="4810" y="3088" width="325" height="127" as="geometry"/>
                </mxCell>
                <mxCell id="98" value="" style="whiteSpace=wrap;html=1;" vertex="1" parent="1">
                    <mxGeometry x="5756" y="511" width="834" height="242" as="geometry"/>
                </mxCell>
                <mxCell id="99" style="edgeStyle=none;html=1;fontSize=48;" edge="1" source="100" target="104" parent="1">
                    <mxGeometry relative="1" as="geometry"/>
                </mxCell>
                <mxCell id="100" value="&lt;span style=&quot;font-size: 48px;&quot;&gt;Reviewing The Models&amp;nbsp;&lt;/span&gt;" style="text;html=1;align=center;verticalAlign=middle;resizable=0;points=[];autosize=1;strokeColor=none;fillColor=none;" vertex="1" parent="1">
                    <mxGeometry x="5915.5" y="595" width="516" height="70" as="geometry"/>
                </mxCell>
                <mxCell id="101" value="" style="edgeStyle=none;html=1;fontSize=48;" edge="1" source="107" target="105" parent="1">
                    <mxGeometry relative="1" as="geometry"/>
                </mxCell>
                <mxCell id="103" value="" style="edgeStyle=none;html=1;fontSize=48;" edge="1" source="104" target="107" parent="1">
                    <mxGeometry relative="1" as="geometry"/>
                </mxCell>
                <mxCell id="104" value="&lt;span style=&quot;font-size: 48px;&quot;&gt;First build the model of &lt;br&gt;a reasonable complexity&lt;/span&gt;" style="text;html=1;align=center;verticalAlign=middle;resizable=0;points=[];autosize=1;strokeColor=none;fillColor=none;" vertex="1" parent="1">
                    <mxGeometry x="5905" y="989.5" width="536" height="127" as="geometry"/>
                </mxCell>
                <mxCell id="105" value="Try to comment out&amp;nbsp;&lt;br&gt;the mathematical transformation" style="text;html=1;align=center;verticalAlign=middle;resizable=0;points=[];autosize=1;strokeColor=none;fillColor=none;fontSize=48;" vertex="1" parent="1">
                    <mxGeometry x="5824" y="1600" width="704" height="127" as="geometry"/>
                </mxCell>
                <mxCell id="107" value="Read how the data&amp;nbsp;&lt;br&gt;is flowing though it" style="text;html=1;align=center;verticalAlign=middle;resizable=0;points=[];autosize=1;strokeColor=none;fillColor=none;fontSize=48;" vertex="1" parent="1">
                    <mxGeometry x="5959" y="1273" width="434" height="127" as="geometry"/>
                </mxCell>
            </root>
        </mxGraphModel>
    </diagram>
</mxfile>